<?xml version="1.0" encoding="utf-8"?>
<!-- Generator: Adobe Illustrator 24.3.0, SVG Export Plug-In . SVG Version: 6.00 Build 0)  -->
<svg version="1.1" id="Guides" xmlns="http://www.w3.org/2000/svg" xmlns:xlink="http://www.w3.org/1999/xlink" x="0px" y="0px"
	 viewBox="0 0 720 540" style="enable-background:new 0 0 720 540;" xml:space="preserve">
<style type="text/css">
	.st0{fill:#FFFFFF;}
</style>
<path class="st0" d="M170.26,175.03c0,0,11.61-57.83,79.31-44.34c0,0,19.34-124.29,156.69-108.41S523.3,156.73,523.3,156.73
	s74.48-11.53,80.29,47.72c0,0,64.06-4.37,79.42,66.96c15.37,71.32-85.23,52.05-85.23,52.05s-44.72,109.88-170.35,28.92
	c0,0-32.91,28.92-91.84,5.78c0,0-93.76,69.4-126.64-30.84c0,0-103.62,47.72-148.96-30.84C15.5,219.36,106.42,165.39,170.26,175.03z"
	/>
</svg>
